<svg width="82" height="82" viewBox="0 0 82 82" fill="none" xmlns="http://www.w3.org/2000/svg">
<rect width="39" height="82" rx="3" fill="#5F0B72"/>
<path d="M30.128 48.1974C28.5196 48.3211 26.9111 48.4528 25.3054 48.6086C24.3198 48.7044 23.3387 48.8487 22.3082 48.9771C22.4164 48.2448 22.5169 47.5665 22.6246 46.8361C22.7627 46.9366 22.8329 46.9878 22.904 47.0385C23.8946 47.7493 24.8431 47.6558 25.6494 46.7445C26.2713 46.0411 26.6047 45.1786 26.8652 44.2905C27.2789 42.8804 27.5601 41.4526 27.1734 39.9825C26.8373 38.7036 25.6122 38.378 24.6642 39.3084C24.4748 39.4945 24.2808 39.6755 24.1152 39.8337C24.0726 39.6829 24.0762 39.4685 23.9721 39.3643C23.5135 38.9046 22.7618 39.134 22.6393 39.7602C22.2885 41.555 21.9555 43.353 21.589 45.1446C21.5436 45.366 21.3648 45.5819 21.1969 45.7475C21.0868 45.8564 20.8859 45.8713 20.7254 45.9285C20.6681 45.7526 20.5456 45.5689 20.5644 45.4019C20.6369 44.7673 20.7373 44.1346 20.8593 43.508C21.0721 42.4138 21.3161 41.3261 21.5317 40.2324C21.6097 39.8364 21.4496 39.5848 21.0368 39.4829C20.4534 39.3387 20.3484 39.3815 19.9723 40.0667C18.9537 39.4592 18.2185 39.5624 17.3833 40.4384C16.6733 41.1828 16.2399 42.0918 15.9023 43.053C15.4373 44.3765 15.1901 45.7256 15.5143 47.1269C15.6579 47.7466 15.9835 48.2053 16.621 48.3946C17.303 48.597 17.8708 48.4034 18.34 47.8982C18.5478 47.6744 18.7083 47.4051 18.9078 47.1325C19.0422 47.6275 19.3311 48.0178 19.8356 47.9857C20.2759 47.9578 20.7048 47.7447 21.1464 47.6107C21.0731 47.9834 20.9653 48.3723 20.9281 48.7677C20.8946 49.1236 20.7263 49.2264 20.4039 49.2757C18.6056 49.5511 16.8104 49.8465 15.0149 50.1396C14.4452 50.2327 13.8774 50.3388 13.2427 50.4504C13.5036 49.5088 13.7435 48.6514 13.9783 47.7926C14.6181 45.4563 15.2644 43.1214 15.8881 40.7804C16.0509 40.17 15.7987 39.93 15.1933 40.077C14.4796 40.2505 14.0375 40.7092 13.7903 41.4182C13.2968 42.8339 12.79 44.2467 12.2291 45.6363C12.0704 46.0299 11.7369 46.3732 11.4196 46.6682C11.2719 46.8054 10.9082 46.8789 10.7568 46.7873C10.6023 46.6938 10.5105 46.3556 10.5289 46.136C10.5642 45.7108 10.6798 45.2893 10.7903 44.8734C11.0187 44.0122 11.2967 43.1637 11.4934 42.2956C11.6218 41.728 11.1618 41.2782 10.5165 41.2465C10.095 41.2256 9.97668 41.4326 9.94458 42.0983C9.92898 42.4189 9.85744 42.7436 9.76479 43.0516C9.62353 43.5205 9.40751 43.9676 9.28413 44.4402C9.0516 45.3302 8.81449 46.2234 8.67047 47.1306C8.56498 47.7963 8.70716 48.4635 9.33046 48.8608C9.95834 49.2608 10.5752 49.0943 11.1338 48.6747C11.4466 48.4397 11.7305 48.1657 12.0796 47.8643C11.7521 48.8812 11.4535 49.8424 11.1242 50.7923C11.0765 50.9305 10.8953 51.0422 10.7522 51.1217C9.95742 51.5646 9.11168 51.9289 8.36364 52.4406C6.67309 53.5971 5.49071 55.1505 5.06968 57.2226C4.88439 58.1349 5.0495 58.9606 5.79708 59.5594C6.57081 60.179 7.41517 60.0781 8.24623 59.6692C9.04885 59.2742 9.61848 58.6103 10.1505 57.9092C11.2343 56.482 11.8612 54.8304 12.4024 53.1417C12.507 52.8156 12.6639 52.656 12.9895 52.5899C14.8447 52.214 16.6958 51.8172 18.5505 51.4409C19.1624 51.3166 19.782 51.231 20.4314 51.1222C20.442 51.3455 20.4085 51.5102 20.4649 51.6321C20.5695 51.8595 20.6869 52.1764 20.8726 52.2424C21.057 52.308 21.3895 52.1708 21.5528 52.0121C21.7408 51.8298 21.8642 51.5381 21.9238 51.2724C21.988 50.9849 22.1256 50.8821 22.3889 50.8482C24.0772 50.63 25.765 50.4071 27.4523 50.1792C28.4549 50.0438 29.4607 49.9247 30.455 49.7419C30.9664 49.6479 31.1311 49.1925 30.9288 48.7054C30.7765 48.3388 30.4899 48.1699 30.1266 48.1978L30.128 48.1974ZM23.1227 45.3884C23.4328 44.2151 23.719 43.033 24.09 41.8792C24.2189 41.4782 24.5275 41.1093 24.828 40.7995C25.1834 40.4333 25.5402 40.5617 25.6645 41.0567C25.7292 41.3131 25.742 41.5829 25.7627 41.7308C25.7072 42.9381 25.3944 43.9574 24.9289 44.9227C24.6555 45.4898 24.2432 45.9383 23.5282 45.8754C23.2411 45.8503 23.0342 45.7238 23.1227 45.3884V45.3884ZM19.7077 41.7871C19.3252 43.093 18.906 44.3877 18.4868 45.6819C18.434 45.8447 18.3162 45.9959 18.1987 46.1248C17.8938 46.4588 17.4429 46.4188 17.2567 46.0071C17.1081 45.6782 17.0544 45.3056 16.9861 45.0539C17.1558 43.7499 17.4126 42.611 18.3157 41.7587C18.5436 41.5438 18.8418 41.3805 19.1358 41.2684C19.5004 41.1288 19.8187 41.4075 19.7072 41.7866L19.7077 41.7871ZM8.25219 57.3849C8.0458 57.6306 7.79401 57.8548 7.52203 58.0186C7.35692 58.1181 7.03725 58.1767 6.92305 58.0832C6.77949 57.9655 6.68134 57.6497 6.72812 57.4612C6.8382 57.0207 7.00102 56.5792 7.223 56.1847C7.94811 54.896 8.99932 53.9623 10.4422 53.2943C9.86982 54.849 9.23552 56.2154 8.25219 57.3854V57.3849ZM29.1933 43.7992C29.247 43.5261 29.3813 43.4037 29.679 43.3419C31.365 42.9902 32.6716 41.5992 32.967 39.896C33.1532 38.8213 32.5377 38.0468 31.464 38.0021C30.8774 37.9779 30.3596 38.1631 29.9317 38.5631C28.2352 40.1519 27.5688 42.196 27.3931 44.4463C27.4326 44.8222 27.4514 45.1804 27.511 45.5312C27.7174 46.7528 28.653 47.3707 29.8322 47.0664C30.8352 46.8077 31.6163 46.1955 32.3162 45.4493C32.7835 44.9506 32.8386 44.7189 32.5671 44.1011C32.34 43.5842 32.1309 43.5763 31.73 43.9806C31.3489 44.3653 30.9334 44.725 30.4913 45.0339C30.1661 45.2609 29.7506 45.4167 29.3823 45.1288C29.0043 44.8329 29.0947 44.384 29.1419 43.9699C29.1484 43.9118 29.1823 43.8573 29.1933 43.7996V43.7992ZM30.6266 39.9197C30.7784 39.6801 31.0765 39.4508 31.3219 39.6597C31.4672 39.7834 31.5016 40.1914 31.4218 40.4091C31.1306 41.2037 30.489 41.6136 29.7253 41.8457C29.6726 41.8066 29.6198 41.7676 29.5671 41.7285C29.918 41.1237 30.2532 40.5092 30.6266 39.9197V39.9197Z" fill="white"/>
<path d="M20.5002 24C16.9105 24 14 26.701 14 30.0333C14 31.6234 14.6639 33.0692 15.7471 34.1472L15.5941 36.7039C15.5802 36.9363 15.8599 37.0819 16.0662 36.9501L18.1122 35.6446C18.8514 35.9158 19.6564 36.0667 20.4998 36.0667C24.0895 36.0667 27 33.3657 27 30.0333C27 26.701 24.09 24 20.4998 24H20.5002ZM20.9732 32.4315C20.8077 32.6929 20.5794 32.8951 20.2944 33.0318C20.0128 33.1667 19.6713 33.2353 19.2798 33.2353C18.6667 33.2353 18.1688 33.0647 17.8004 32.7285C17.4319 32.3924 17.2381 31.9342 17.2247 31.3665C17.2237 31.3638 17.2141 31.2494 17.3048 31.1532C17.3753 31.0784 17.4818 31.0388 17.6205 31.0352C17.7831 31.033 17.9107 31.0659 17.9899 31.1389C18.0508 31.1955 18.0714 31.2645 18.0704 31.3099C18.0987 31.5588 18.1635 31.7641 18.2623 31.9057C18.3597 32.0455 18.5027 32.1599 18.6864 32.2459C18.8725 32.3331 19.087 32.3772 19.323 32.3772C19.6593 32.3772 19.9203 32.3051 20.0997 32.1622C20.2752 32.0223 20.3606 31.8447 20.3606 31.6194C20.3606 31.4885 20.3304 31.3785 20.2681 31.2832C20.2066 31.1893 20.1107 31.11 19.9831 31.0481C19.8416 30.9795 19.523 30.8789 19.0371 30.7489C18.5766 30.6256 18.2551 30.5031 18.0541 30.3749C17.8498 30.2444 17.6891 30.0761 17.5754 29.8753C17.4617 29.6745 17.4041 29.4452 17.4041 29.194C17.4041 28.7439 17.5687 28.3694 17.8934 28.0817C18.2163 27.7954 18.6538 27.6503 19.194 27.6503C19.5619 27.6503 19.89 27.7175 20.1688 27.8502C20.4518 27.9847 20.6749 28.181 20.8312 28.4326C20.9857 28.6815 21.0697 28.9767 21.0807 29.3102C21.0817 29.3196 21.0874 29.442 20.9905 29.5413C20.9425 29.5903 20.8519 29.65 20.6936 29.6544C20.53 29.6602 20.4038 29.6246 20.3194 29.5507C20.2306 29.4732 20.2234 29.3837 20.223 29.3663C20.1951 29.0702 20.0968 28.8458 19.9313 28.7051C19.7653 28.5649 19.5235 28.4936 19.2127 28.4936C18.9018 28.4936 18.6509 28.556 18.4912 28.6789C18.3362 28.7977 18.2609 28.9478 18.2609 29.137C18.2609 29.3125 18.3137 29.442 18.4216 29.5338C18.5036 29.6037 18.7195 29.7159 19.2808 29.8557C19.7557 29.9741 20.0824 30.0752 20.2796 30.1647H20.2805C20.5871 30.3063 20.8226 30.496 20.9809 30.7289C21.1397 30.9617 21.2203 31.2422 21.2203 31.5624C21.2203 31.8825 21.1368 32.1706 20.9718 32.4311L20.9732 32.4315ZM24.8427 28.5475L22.3294 32.7909C22.2493 32.9258 22.0968 33.0099 21.9303 33.0099C21.854 33.0099 21.7782 32.9921 21.7115 32.9579C21.4918 32.8456 21.4112 32.5883 21.5316 32.3843L24.0449 28.141C24.1658 27.9375 24.4426 27.8627 24.6628 27.9744C24.8825 28.0866 24.9631 28.344 24.8422 28.5479L24.8427 28.5475Z" fill="#01D0B5"/>
<rect opacity="0.4" x="43" y="43" width="39" height="39" rx="3" fill="white"/>
<rect x="43" width="39" height="82" rx="3" fill="url(#paint0_linear_314_65)"/>
<path d="M63 26C54.7159 26 48 32.7159 48 41C48 42.7418 48.3002 44.4119 48.8457 45.9669C49.1875 47.9231 49.2344 48.7918 48.9812 50.1298C48.8005 51.0871 48.2471 51.7131 48.34 52.612C48.4242 53.4266 48.4844 53.8933 49.2132 54.6823C50.0739 55.5546 50.8709 55.5014 51.1259 55.5404C52.0115 55.6768 52.6685 55.1738 53.6311 55.0534C55.1453 54.8639 56.2443 54.7603 58.7229 55.3801C58.7326 55.3828 58.7415 55.3837 58.7512 55.3854C60.099 55.783 61.5238 56 63 56C71.2841 56 78 49.2841 78 41C78 32.7159 71.2841 26 63 26Z" fill="white"/>
<path d="M56.4215 37.3833C55.8618 37.3833 55.3508 37.4967 54.9037 37.7163C54.3475 38.0165 54.267 37.7615 54.2138 37.6933C54.1598 37.6242 54.1731 37.541 53.8995 37.5418H52.9449C52.9449 37.5418 52.2949 37.5046 52.325 37.9368C52.325 37.9368 52.3825 39.3324 52.3825 40.2073V47.1082C52.3825 47.6395 52.7695 48.1177 53.2982 48.1655C53.8959 48.2196 54.3989 47.7476 54.3989 47.1614V45.5072C54.3989 45.2601 54.653 45.0848 54.878 45.1875C55.2756 45.3682 55.7272 45.4638 56.2054 45.4638C57.9215 45.4638 59.7679 44.1683 59.7679 41.3222C59.7679 39.0402 58.3608 37.3833 56.4223 37.3833H56.4215ZM55.9875 43.7078C55.2579 43.7078 54.6407 43.2287 54.4467 42.5132C54.4467 42.5132 54.4467 42.5132 54.4467 42.5123C54.421 42.368 54.398 42.2245 54.398 42.0749V40.8732C54.398 40.7368 54.4396 40.5677 54.4733 40.4464C54.6699 39.6848 55.3101 39.1535 56.0318 39.1535C57.2096 39.1535 57.7374 40.2719 57.7374 41.3797C57.7374 42.8373 57.0838 43.7078 55.9884 43.7078H55.9875ZM71.2824 37.3833C70.783 37.3833 70.3101 37.4914 69.8877 37.6995C69.7106 37.7871 69.2882 37.7615 69.1819 37.7083C69.0739 37.6543 69.0013 37.5418 68.8729 37.5418H67.7368C67.5163 37.5418 67.3427 37.7287 67.3595 37.9483C67.3994 38.4805 67.4162 39.0393 67.4162 39.8159V44.2949C67.4251 44.6571 67.4614 44.673 67.4614 44.673C67.6208 45.0644 68.0618 45.3336 68.5169 45.3C69.0527 45.2601 69.4476 44.7766 69.4476 44.24V40.7129C69.4476 40.5323 69.4715 40.3587 69.5114 40.2489L69.5176 40.2303C69.6752 39.7149 70.1525 39.196 70.8636 39.196C71.688 39.196 72.106 39.7645 72.106 40.8865V44.2949C72.1361 45.1831 72.7515 45.3345 73.2058 45.3C73.7415 45.2601 74.1365 44.7766 74.1365 44.24V40.7421C74.1365 38.2627 72.5992 37.3824 71.2833 37.3824L71.2824 37.3833ZM65.0527 37.5427C64.6303 37.5427 64.0299 37.7969 64.0299 38.3751V44.2967C64.0299 45.1264 64.6303 45.3044 65.0527 45.3044C65.6088 45.3044 66.0605 44.8519 66.0605 44.2967V38.5513C66.0605 37.9952 65.6079 37.5436 65.0527 37.5436V37.5427ZM61.6275 34.2725C61.1033 34.2725 60.6693 34.663 60.6171 35.181L60.6153 35.1996V44.3764L60.6171 44.395C60.6693 44.913 61.1033 45.3035 61.6275 45.3035C62.1889 45.3035 62.6458 44.851 62.6458 44.2958V35.2802C62.6458 34.7241 62.1889 34.2725 61.6275 34.2725V34.2725Z" fill="url(#paint1_linear_314_65)"/>
<circle cx="65" cy="36" r="1" fill="#EE7AC8"/>
<defs>
<linearGradient id="paint0_linear_314_65" x1="44.645" y1="78.5412" x2="96.2578" y2="53.9937" gradientUnits="userSpaceOnUse">
<stop stop-color="#2982F8"/>
<stop offset="0.33" stop-color="#10BCDF"/>
<stop offset="0.6" stop-color="#05D7D3"/>
<stop offset="1" stop-color="#00E2CE"/>
</linearGradient>
<linearGradient id="paint1_linear_314_65" x1="53.244" y1="47.5836" x2="63.464" y2="31.5429" gradientUnits="userSpaceOnUse">
<stop stop-color="#2982F8"/>
<stop offset="0.33" stop-color="#10BCDF"/>
<stop offset="0.6" stop-color="#05D7D3"/>
<stop offset="1" stop-color="#00E2CE"/>
</linearGradient>
</defs>
</svg>
